# This file uses centimeters as units for non-parametric coordinates.

g default
v 2.259661 -1.273559 -0.000000
v -0.101379 -1.273559 -2.257385
v -0.502822 -1.273559 -2.203006
v -0.888103 -1.273559 -2.077821
v -1.244840 -1.273559 -1.885852
v -1.561567 -1.273559 -1.633271
v -1.828104 -1.273559 -1.328195
v -2.035883 -1.273559 -0.980430
v -2.178228 -1.273559 -0.601153
v -2.250563 -1.273559 -0.202554
v -2.250563 -1.273559 0.202554
v -2.178228 -1.273559 0.601153
v -2.035883 -1.273559 0.980430
v -1.828103 -1.273559 1.328195
v -1.561567 -1.273559 1.633270
v -1.244840 -1.273559 1.885852
v -0.888103 -1.273559 2.077820
v -0.502822 -1.273559 2.203005
v -0.101379 -1.273559 2.257384
v 0.303321 -1.273559 2.239209
v 0.698273 -1.273559 2.149064
v 1.070782 -1.273559 1.989846
v 1.408875 -1.273559 1.766673
v 1.701685 -1.273559 1.486718
v 1.939802 -1.273559 1.158978
v 2.115572 -1.273559 0.793988
v 2.223346 -1.273559 0.403478
v 2.259661 1.273559 0.000000
v -0.101379 1.273559 -2.257385
v -0.502822 1.273559 -2.203006
v -0.888103 1.273559 -2.077821
v -1.244840 1.273559 -1.885852
v -1.561567 1.273559 -1.633271
v -1.828104 1.273559 -1.328195
v -2.035883 1.273559 -0.980430
v -2.178228 1.273559 -0.601153
v -2.250563 1.273559 -0.202554
v -2.250563 1.273559 0.202554
v -2.178228 1.273559 0.601153
v -2.035883 1.273559 0.980430
v -1.828103 1.273559 1.328195
v -1.561567 1.273559 1.633270
v -1.244840 1.273559 1.885852
v -0.888103 1.273559 2.077820
v -0.502822 1.273559 2.203005
v -0.101379 1.273559 2.257384
v 0.303321 1.273559 2.239209
v 0.698273 1.273559 2.149064
v 1.070782 1.273559 1.989846
v 1.408875 1.273559 1.766673
v 1.701685 1.273559 1.486718
v 1.939802 1.273559 1.158978
v 2.115572 1.273559 0.793988
v 2.223346 1.273559 0.403478
v 2.269661 1.273559 0.000000
v -0.101828 1.273559 -2.267375
v -0.505047 1.273559 -2.212755
v -0.892033 1.273559 -2.087016
v -1.250349 1.273559 -1.894198
v -1.568477 1.273559 -1.640499
v -1.836194 1.273559 -1.334073
v -2.044893 1.273559 -0.984769
v -2.187868 1.273559 -0.603814
v -2.260523 1.273559 -0.203451
v -2.260523 1.273559 0.203450
v -2.187868 1.273559 0.603813
v -2.044893 1.273559 0.984768
v -1.836194 1.273559 1.334072
v -1.568477 1.273559 1.640498
v -1.250349 1.273559 1.894197
v -0.892033 1.273559 2.087015
v -0.505047 1.273559 2.212754
v -0.101828 1.273559 2.267374
v 0.304663 1.273559 2.249119
v 0.701363 1.273559 2.158575
v 1.075520 1.273559 1.998652
v 1.415109 1.273559 1.774492
v 1.709216 1.273559 1.493297
v 1.948386 1.273559 1.164107
v 2.124934 1.273559 0.797501
v 2.233185 1.273559 0.405264
v 2.269661 -1.273559 -0.000000
v -0.101828 -1.273559 -2.267375
v -0.505047 -1.273559 -2.212755
v -0.892033 -1.273559 -2.087016
v -1.250349 -1.273559 -1.894198
v -1.568477 -1.273559 -1.640499
v -1.836194 -1.273559 -1.334073
v -2.044893 -1.273559 -0.984769
v -2.187868 -1.273559 -0.603814
v -2.260523 -1.273559 -0.203451
v -2.260523 -1.273559 0.203450
v -2.187868 -1.273559 0.603813
v -2.044893 -1.273559 0.984768
v -1.836194 -1.273559 1.334072
v -1.568477 -1.273559 1.640498
v -1.250349 -1.273559 1.894197
v -0.892033 -1.273559 2.087015
v -0.505047 -1.273559 2.212754
v -0.101828 -1.273559 2.267374
v 0.304663 -1.273559 2.249119
v 0.701363 -1.273559 2.158575
v 1.075520 -1.273559 1.998652
v 1.415109 -1.273559 1.774492
v 1.709216 -1.273559 1.493297
v 1.948386 -1.273559 1.164107
v 2.124934 -1.273559 0.797501
v 2.233185 -1.273559 0.405264
vt 0.257143 1.000000
vt 0.285714 1.000000
vt 0.314286 1.000000
vt 0.342857 1.000000
vt 0.371429 1.000000
vt 0.400000 1.000000
vt 0.428571 1.000000
vt 0.457143 1.000000
vt 0.485714 1.000000
vt 0.514286 1.000000
vt 0.542857 1.000000
vt 0.571429 1.000000
vt 0.600000 1.000000
vt 0.628571 1.000000
vt 0.657143 1.000000
vt 0.685714 1.000000
vt 0.714286 1.000000
vt 0.742857 1.000000
vt 0.771429 1.000000
vt 0.800000 1.000000
vt 0.828571 1.000000
vt 0.857143 1.000000
vt 0.885714 1.000000
vt 0.914286 1.000000
vt 0.942857 1.000000
vt 0.971429 1.000000
vt 1.000000 1.000000
vt 0.257143 0.750000
vt 0.285714 0.750000
vt 0.314286 0.750000
vt 0.342857 0.750000
vt 0.371429 0.750000
vt 0.400000 0.750000
vt 0.428571 0.750000
vt 0.457143 0.750000
vt 0.485714 0.750000
vt 0.514286 0.750000
vt 0.542857 0.750000
vt 0.571429 0.750000
vt 0.600000 0.750000
vt 0.628571 0.750000
vt 0.657143 0.750000
vt 0.685714 0.750000
vt 0.714286 0.750000
vt 0.742857 0.750000
vt 0.771429 0.750000
vt 0.800000 0.750000
vt 0.828571 0.750000
vt 0.857143 0.750000
vt 0.885714 0.750000
vt 0.914286 0.750000
vt 0.942857 0.750000
vt 0.971429 0.750000
vt 1.000000 0.750000
vt 0.257143 0.500000
vt 0.285714 0.500000
vt 0.314286 0.500000
vt 0.342857 0.500000
vt 0.371429 0.500000
vt 0.400000 0.500000
vt 0.428571 0.500000
vt 0.457143 0.500000
vt 0.485714 0.500000
vt 0.514286 0.500000
vt 0.542857 0.500000
vt 0.571429 0.500000
vt 0.600000 0.500000
vt 0.628571 0.500000
vt 0.657143 0.500000
vt 0.685714 0.500000
vt 0.714286 0.500000
vt 0.742857 0.500000
vt 0.771429 0.500000
vt 0.800000 0.500000
vt 0.828571 0.500000
vt 0.857143 0.500000
vt 0.885714 0.500000
vt 0.914286 0.500000
vt 0.942857 0.500000
vt 0.971429 0.500000
vt 1.000000 0.500000
vt 0.257143 0.250000
vt 0.285714 0.250000
vt 0.314286 0.250000
vt 0.342857 0.250000
vt 0.371429 0.250000
vt 0.400000 0.250000
vt 0.428571 0.250000
vt 0.457143 0.250000
vt 0.485714 0.250000
vt 0.514286 0.250000
vt 0.542857 0.250000
vt 0.571429 0.250000
vt 0.600000 0.250000
vt 0.628571 0.250000
vt 0.657143 0.250000
vt 0.685714 0.250000
vt 0.714286 0.250000
vt 0.742857 0.250000
vt 0.771429 0.250000
vt 0.800000 0.250000
vt 0.828571 0.250000
vt 0.857143 0.250000
vt 0.885714 0.250000
vt 0.914286 0.250000
vt 0.942857 0.250000
vt 0.971429 0.250000
vt 1.000000 0.250000
vt 0.257143 0.000000
vt 0.285714 0.000000
vt 0.314286 0.000000
vt 0.342857 0.000000
vt 0.371429 0.000000
vt 0.400000 0.000000
vt 0.428571 0.000000
vt 0.457143 0.000000
vt 0.485714 0.000000
vt 0.514286 0.000000
vt 0.542857 0.000000
vt 0.571429 0.000000
vt 0.600000 0.000000
vt 0.628571 0.000000
vt 0.657143 0.000000
vt 0.685714 0.000000
vt 0.714286 0.000000
vt 0.742857 0.000000
vt 0.771429 0.000000
vt 0.800000 0.000000
vt 0.828571 0.000000
vt 0.857143 0.000000
vt 0.885714 0.000000
vt 0.914286 0.000000
vt 0.942857 0.000000
vt 0.971429 0.000000
vt 1.000000 0.000000
vn 0.222521 0.000000 0.974928
vn 0.134233 0.000000 0.990950
vn 0.222521 0.000000 0.974928
vn 0.134233 0.000000 0.990950
vn 0.393025 0.000000 0.919528
vn 0.393025 0.000000 0.919528
vn 0.550897 0.000000 0.834573
vn 0.550897 0.000000 0.834573
vn 0.691063 0.000000 0.722795
vn 0.691063 0.000000 0.722795
vn 0.809017 0.000000 0.587785
vn 0.809017 0.000000 0.587785
vn 0.900969 0.000000 0.433884
vn 0.900969 0.000000 0.433884
vn 0.963963 0.000000 0.266037
vn 0.963963 0.000000 0.266037
vn 0.995974 0.000000 0.089639
vn 0.995974 0.000000 0.089639
vn 0.995974 0.000000 -0.089640
vn 0.995974 0.000000 -0.089640
vn 0.963963 0.000000 -0.266037
vn 0.963963 0.000000 -0.266037
vn 0.900969 0.000000 -0.433884
vn 0.900969 0.000000 -0.433884
vn 0.809017 0.000000 -0.587785
vn 0.809017 0.000000 -0.587785
vn 0.691063 0.000000 -0.722795
vn 0.691063 0.000000 -0.722795
vn 0.550897 0.000000 -0.834573
vn 0.550897 0.000000 -0.834573
vn 0.393025 0.000000 -0.919528
vn 0.393025 0.000000 -0.919528
vn 0.222521 0.000000 -0.974928
vn 0.222521 0.000000 -0.974928
vn 0.044865 0.000000 -0.998993
vn 0.044865 0.000000 -0.998993
vn -0.134233 0.000000 -0.990950
vn -0.134233 0.000000 -0.990950
vn -0.309017 0.000000 -0.951057
vn -0.309017 0.000000 -0.951057
vn -0.473868 0.000000 -0.880596
vn -0.473869 0.000000 -0.880595
vn -0.623490 0.000000 -0.781831
vn -0.623490 0.000000 -0.781832
vn -0.753072 0.000000 -0.657939
vn -0.753071 0.000000 -0.657939
vn -0.858449 0.000000 -0.512899
vn -0.858449 0.000000 -0.512899
vn -0.936235 0.000000 -0.351375
vn -0.936235 0.000000 -0.351375
vn -0.983929 0.000000 -0.178559
vn -0.983929 0.000000 -0.178559
vn -0.995974 0.000000 -0.089643
vn -0.995974 0.000000 -0.089643
vn 0.000000 1.000000 -0.000008
vn 0.000000 1.000000 -0.000000
vn 0.000000 1.000000 -0.000007
vn 0.000000 1.000000 0.000000
vn 0.000000 1.000000 -0.000011
vn 0.000000 1.000000 -0.000011
vn 0.000000 1.000000 -0.000001
vn 0.000000 1.000000 -0.000001
vn 0.000000 1.000000 -0.000000
vn 0.000000 1.000000 -0.000000
vn 0.000000 1.000000 -0.000003
vn 0.000000 1.000000 -0.000003
vn 0.000000 1.000000 -0.000002
vn 0.000000 1.000000 -0.000002
vn 0.000000 1.000000 0.000002
vn 0.000000 1.000000 0.000003
vn 0.000000 1.000000 -0.000001
vn 0.000000 1.000000 -0.000001
vn 0.000000 1.000000 -0.000000
vn 0.000000 1.000000 0.000000
vn 0.000000 1.000000 -0.000001
vn 0.000000 1.000000 -0.000001
vn 0.000000 1.000000 0.000000
vn 0.000000 1.000000 0.000000
vn 0.000000 1.000000 -0.000004
vn 0.000000 1.000000 -0.000004
vn 0.000000 1.000000 0.000006
vn 0.000000 1.000000 0.000006
vn 0.000000 1.000000 -0.000001
vn 0.000000 1.000000 -0.000001
vn 0.000000 1.000000 0.000011
vn 0.000000 1.000000 0.000011
vn 0.000000 1.000000 0.000013
vn 0.000000 1.000000 0.000013
vn 0.000000 1.000000 0.000006
vn 0.000000 1.000000 0.000007
vn 0.000000 1.000000 -0.000009
vn 0.000000 1.000000 -0.000009
vn 0.000000 1.000000 0.000009
vn 0.000000 1.000000 0.000008
vn 0.000000 1.000000 0.000007
vn 0.000000 1.000000 0.000007
vn 0.000000 1.000000 -0.000002
vn 0.000000 1.000000 -0.000002
vn 0.000000 1.000000 0.000000
vn 0.000000 1.000000 0.000000
vn 0.000000 1.000000 0.000005
vn 0.000000 1.000000 0.000005
vn 0.000000 1.000000 -0.000003
vn 0.000000 1.000000 -0.000003
vn 0.000000 1.000000 -0.000000
vn 0.000000 1.000000 -0.000000
vn 0.000000 1.000000 -0.000001
vn 0.000000 1.000000 -0.000001
vn -0.222521 0.000000 -0.974928
vn -0.134233 0.000000 -0.990950
vn -0.222521 0.000000 -0.974928
vn -0.134233 0.000000 -0.990950
vn -0.393025 0.000000 -0.919528
vn -0.393025 0.000000 -0.919528
vn -0.550897 0.000000 -0.834573
vn -0.550897 0.000000 -0.834573
vn -0.691063 0.000000 -0.722795
vn -0.691063 0.000000 -0.722795
vn -0.809017 0.000000 -0.587785
vn -0.809017 0.000000 -0.587785
vn -0.900969 0.000000 -0.433884
vn -0.900969 0.000000 -0.433884
vn -0.963963 0.000000 -0.266037
vn -0.963963 0.000000 -0.266037
vn -0.995974 0.000000 -0.089639
vn -0.995974 0.000000 -0.089639
vn -0.995974 0.000000 0.089639
vn -0.995974 0.000000 0.089639
vn -0.963963 0.000000 0.266037
vn -0.963963 0.000000 0.266037
vn -0.900969 0.000000 0.433884
vn -0.900969 0.000000 0.433884
vn -0.809017 0.000000 0.587785
vn -0.809017 0.000000 0.587785
vn -0.691062 0.000000 0.722795
vn -0.691063 0.000000 0.722795
vn -0.550897 0.000000 0.834573
vn -0.550897 0.000000 0.834573
vn -0.393025 0.000000 0.919528
vn -0.393025 0.000000 0.919528
vn -0.222521 0.000000 0.974928
vn -0.222521 0.000000 0.974928
vn -0.044864 0.000000 0.998993
vn -0.044865 0.000000 0.998993
vn 0.134234 0.000000 0.990950
vn 0.134233 0.000000 0.990950
vn 0.309016 0.000000 0.951057
vn 0.309017 0.000000 0.951057
vn 0.473868 0.000000 0.880596
vn 0.473869 0.000000 0.880596
vn 0.623490 0.000000 0.781832
vn 0.623490 0.000000 0.781831
vn 0.753071 0.000000 0.657939
vn 0.753072 0.000000 0.657939
vn 0.858449 0.000000 0.512899
vn 0.858449 0.000000 0.512899
vn 0.936235 0.000000 0.351375
vn 0.936235 0.000000 0.351375
vn 0.983929 -0.000000 0.178559
vn 0.983929 0.000000 0.178559
vn 0.995974 -0.000000 0.089644
vn 0.995974 -0.000000 0.089644
vn 0.000000 -1.000000 -0.000008
vn 0.000000 -1.000000 -0.000000
vn 0.000000 -1.000000 -0.000007
vn 0.000000 -1.000000 0.000000
vn 0.000000 -1.000000 -0.000011
vn 0.000000 -1.000000 -0.000011
vn 0.000000 -1.000000 -0.000001
vn 0.000000 -1.000000 -0.000001
vn 0.000000 -1.000000 -0.000000
vn 0.000000 -1.000000 -0.000000
vn 0.000000 -1.000000 -0.000003
vn 0.000000 -1.000000 -0.000003
vn 0.000000 -1.000000 0.000002
vn 0.000000 -1.000000 0.000002
vn 0.000000 -1.000000 -0.000003
vn 0.000000 -1.000000 -0.000003
vn 0.000000 -1.000000 0.000001
vn 0.000000 -1.000000 0.000001
vn 0.000000 -1.000000 -0.000000
vn 0.000000 -1.000000 0.000000
vn 0.000000 -1.000000 -0.000001
vn 0.000000 -1.000000 -0.000001
vn 0.000000 -1.000000 -0.000007
vn 0.000000 -1.000000 -0.000007
vn 0.000000 -1.000000 0.000010
vn 0.000000 -1.000000 0.000010
vn 0.000000 -1.000000 -0.000001
vn 0.000000 -1.000000 -0.000001
vn 0.000000 -1.000000 -0.000001
vn 0.000000 -1.000000 -0.000001
vn 0.000000 -1.000000 0.000003
vn 0.000000 -1.000000 0.000003
vn 0.000000 -1.000000 0.000006
vn 0.000000 -1.000000 0.000006
vn 0.000000 -1.000000 0.000007
vn 0.000000 -1.000000 0.000007
vn 0.000000 -1.000000 0.000020
vn 0.000000 -1.000000 0.000020
vn 0.000000 -1.000000 0.000001
vn 0.000000 -1.000000 0.000002
vn 0.000000 -1.000000 -0.000000
vn 0.000000 -1.000000 -0.000000
vn 0.000000 -1.000000 -0.000002
vn 0.000000 -1.000000 -0.000002
vn 0.000000 -1.000000 0.000000
vn 0.000000 -1.000000 0.000000
vn 0.000000 -1.000000 0.000001
vn 0.000000 -1.000000 0.000001
vn 0.000000 -1.000000 0.000000
vn 0.000000 -1.000000 0.000000
vn 0.000000 -1.000000 -0.000000
vn 0.000000 -1.000000 -0.000000
vn 0.000000 -1.000000 -0.000001
vn 0.000000 -1.000000 -0.000001
vn 0.000000 0.000000 -1.000000
vn 0.000000 0.000000 -1.000000
vn 0.000000 0.000000 -1.000000
vn 0.000000 0.000000 -1.000000
vn 0.998994 0.000000 -0.044847
vn 0.998994 0.000000 -0.044849
vn 0.998994 0.000000 -0.044847
vn 0.998994 0.000000 -0.044849
s 1
g pPipe1
f 3/2/1 2/1/2 30/29/3
f 30/29/3 2/1/2 29/28/4
f 4/3/5 3/2/1 31/30/6
f 31/30/6 3/2/1 30/29/3
f 5/4/7 4/3/5 32/31/8
f 32/31/8 4/3/5 31/30/6
f 6/5/9 5/4/7 33/32/10
f 33/32/10 5/4/7 32/31/8
f 7/6/11 6/5/9 34/33/12
f 34/33/12 6/5/9 33/32/10
f 8/7/13 7/6/11 35/34/14
f 35/34/14 7/6/11 34/33/12
f 9/8/15 8/7/13 36/35/16
f 36/35/16 8/7/13 35/34/14
f 10/9/17 9/8/15 37/36/18
f 37/36/18 9/8/15 36/35/16
f 11/10/19 10/9/17 38/37/20
f 38/37/20 10/9/17 37/36/18
f 12/11/21 11/10/19 39/38/22
f 39/38/22 11/10/19 38/37/20
f 13/12/23 12/11/21 40/39/24
f 40/39/24 12/11/21 39/38/22
f 14/13/25 13/12/23 41/40/26
f 41/40/26 13/12/23 40/39/24
f 15/14/27 14/13/25 42/41/28
f 42/41/28 14/13/25 41/40/26
f 16/15/29 15/14/27 43/42/30
f 43/42/30 15/14/27 42/41/28
f 17/16/31 16/15/29 44/43/32
f 44/43/32 16/15/29 43/42/30
f 18/17/33 17/16/31 45/44/34
f 45/44/34 17/16/31 44/43/32
f 19/18/35 18/17/33 46/45/36
f 46/45/36 18/17/33 45/44/34
f 20/19/37 19/18/35 47/46/38
f 47/46/38 19/18/35 46/45/36
f 21/20/39 20/19/37 48/47/40
f 48/47/40 20/19/37 47/46/38
f 22/21/41 21/20/39 49/48/42
f 49/48/42 21/20/39 48/47/40
f 23/22/43 22/21/41 50/49/44
f 50/49/44 22/21/41 49/48/42
f 24/23/45 23/22/43 51/50/46
f 51/50/46 23/22/43 50/49/44
f 25/24/47 24/23/45 52/51/48
f 52/51/48 24/23/45 51/50/46
f 26/25/49 25/24/47 53/52/50
f 53/52/50 25/24/47 52/51/48
f 27/26/51 26/25/49 54/53/52
f 54/53/52 26/25/49 53/52/50
f 1/27/53 27/26/51 28/54/54
f 28/54/54 27/26/51 54/53/52
s 2
f 30/29/55 29/28/56 57/56/57
f 57/56/57 29/28/56 56/55/58
f 31/30/59 30/29/55 58/57/60
f 58/57/60 30/29/55 57/56/57
f 32/31/61 31/30/59 59/58/62
f 59/58/62 31/30/59 58/57/60
f 33/32/63 32/31/61 60/59/64
f 60/59/64 32/31/61 59/58/62
f 34/33/65 33/32/63 61/60/66
f 61/60/66 33/32/63 60/59/64
f 35/34/67 34/33/65 62/61/68
f 62/61/68 34/33/65 61/60/66
f 36/35/69 35/34/67 63/62/70
f 63/62/70 35/34/67 62/61/68
f 37/36/71 36/35/69 64/63/72
f 64/63/72 36/35/69 63/62/70
f 38/37/73 37/36/71 65/64/74
f 65/64/74 37/36/71 64/63/72
f 39/38/75 38/37/73 66/65/76
f 66/65/76 38/37/73 65/64/74
f 40/39/77 39/38/75 67/66/78
f 67/66/78 39/38/75 66/65/76
f 41/40/79 40/39/77 68/67/80
f 68/67/80 40/39/77 67/66/78
f 42/41/81 41/40/79 69/68/82
f 69/68/82 41/40/79 68/67/80
f 43/42/83 42/41/81 70/69/84
f 70/69/84 42/41/81 69/68/82
f 44/43/85 43/42/83 71/70/86
f 71/70/86 43/42/83 70/69/84
f 45/44/87 44/43/85 72/71/88
f 72/71/88 44/43/85 71/70/86
f 46/45/89 45/44/87 73/72/90
f 73/72/90 45/44/87 72/71/88
f 47/46/91 46/45/89 74/73/92
f 74/73/92 46/45/89 73/72/90
f 48/47/93 47/46/91 75/74/94
f 75/74/94 47/46/91 74/73/92
f 49/48/95 48/47/93 76/75/96
f 76/75/96 48/47/93 75/74/94
f 50/49/97 49/48/95 77/76/98
f 77/76/98 49/48/95 76/75/96
f 51/50/99 50/49/97 78/77/100
f 78/77/100 50/49/97 77/76/98
f 52/51/101 51/50/99 79/78/102
f 79/78/102 51/50/99 78/77/100
f 53/52/103 52/51/101 80/79/104
f 80/79/104 52/51/101 79/78/102
f 54/53/105 53/52/103 81/80/106
f 81/80/106 53/52/103 80/79/104
f 28/54/107 54/53/105 55/81/108
f 55/81/108 54/53/105 81/80/106
s 3
f 57/56/109 56/55/110 84/83/111
f 84/83/111 56/55/110 83/82/112
f 58/57/113 57/56/109 85/84/114
f 85/84/114 57/56/109 84/83/111
f 59/58/115 58/57/113 86/85/116
f 86/85/116 58/57/113 85/84/114
f 60/59/117 59/58/115 87/86/118
f 87/86/118 59/58/115 86/85/116
f 61/60/119 60/59/117 88/87/120
f 88/87/120 60/59/117 87/86/118
f 62/61/121 61/60/119 89/88/122
f 89/88/122 61/60/119 88/87/120
f 63/62/123 62/61/121 90/89/124
f 90/89/124 62/61/121 89/88/122
f 64/63/125 63/62/123 91/90/126
f 91/90/126 63/62/123 90/89/124
f 65/64/127 64/63/125 92/91/128
f 92/91/128 64/63/125 91/90/126
f 66/65/129 65/64/127 93/92/130
f 93/92/130 65/64/127 92/91/128
f 67/66/131 66/65/129 94/93/132
f 94/93/132 66/65/129 93/92/130
f 68/67/133 67/66/131 95/94/134
f 95/94/134 67/66/131 94/93/132
f 69/68/135 68/67/133 96/95/136
f 96/95/136 68/67/133 95/94/134
f 70/69/137 69/68/135 97/96/138
f 97/96/138 69/68/135 96/95/136
f 71/70/139 70/69/137 98/97/140
f 98/97/140 70/69/137 97/96/138
f 72/71/141 71/70/139 99/98/142
f 99/98/142 71/70/139 98/97/140
f 73/72/143 72/71/141 100/99/144
f 100/99/144 72/71/141 99/98/142
f 74/73/145 73/72/143 101/100/146
f 101/100/146 73/72/143 100/99/144
f 75/74/147 74/73/145 102/101/148
f 102/101/148 74/73/145 101/100/146
f 76/75/149 75/74/147 103/102/150
f 103/102/150 75/74/147 102/101/148
f 77/76/151 76/75/149 104/103/152
f 104/103/152 76/75/149 103/102/150
f 78/77/153 77/76/151 105/104/154
f 105/104/154 77/76/151 104/103/152
f 79/78/155 78/77/153 106/105/156
f 106/105/156 78/77/153 105/104/154
f 80/79/157 79/78/155 107/106/158
f 107/106/158 79/78/155 106/105/156
f 81/80/159 80/79/157 108/107/160
f 108/107/160 80/79/157 107/106/158
f 55/81/161 81/80/159 82/108/162
f 82/108/162 81/80/159 108/107/160
s 4
f 84/83/163 83/82/164 3/110/165
f 3/110/165 83/82/164 2/109/166
f 85/84/167 84/83/163 4/111/168
f 4/111/168 84/83/163 3/110/165
f 86/85/169 85/84/167 5/112/170
f 5/112/170 85/84/167 4/111/168
f 87/86/171 86/85/169 6/113/172
f 6/113/172 86/85/169 5/112/170
f 88/87/173 87/86/171 7/114/174
f 7/114/174 87/86/171 6/113/172
f 89/88/175 88/87/173 8/115/176
f 8/115/176 88/87/173 7/114/174
f 90/89/177 89/88/175 9/116/178
f 9/116/178 89/88/175 8/115/176
f 91/90/179 90/89/177 10/117/180
f 10/117/180 90/89/177 9/116/178
f 92/91/181 91/90/179 11/118/182
f 11/118/182 91/90/179 10/117/180
f 93/92/183 92/91/181 12/119/184
f 12/119/184 92/91/181 11/118/182
f 94/93/185 93/92/183 13/120/186
f 13/120/186 93/92/183 12/119/184
f 95/94/187 94/93/185 14/121/188
f 14/121/188 94/93/185 13/120/186
f 96/95/189 95/94/187 15/122/190
f 15/122/190 95/94/187 14/121/188
f 97/96/191 96/95/189 16/123/192
f 16/123/192 96/95/189 15/122/190
f 98/97/193 97/96/191 17/124/194
f 17/124/194 97/96/191 16/123/192
f 99/98/195 98/97/193 18/125/196
f 18/125/196 98/97/193 17/124/194
f 100/99/197 99/98/195 19/126/198
f 19/126/198 99/98/195 18/125/196
f 101/100/199 100/99/197 20/127/200
f 20/127/200 100/99/197 19/126/198
f 102/101/201 101/100/199 21/128/202
f 21/128/202 101/100/199 20/127/200
f 103/102/203 102/101/201 22/129/204
f 22/129/204 102/101/201 21/128/202
f 104/103/205 103/102/203 23/130/206
f 23/130/206 103/102/203 22/129/204
f 105/104/207 104/103/205 24/131/208
f 24/131/208 104/103/205 23/130/206
f 106/105/209 105/104/207 25/132/210
f 25/132/210 105/104/207 24/131/208
f 107/106/211 106/105/209 26/133/212
f 26/133/212 106/105/209 25/132/210
f 108/107/213 107/106/211 27/134/214
f 27/134/214 107/106/211 26/133/212
f 82/108/215 108/107/213 1/135/216
f 1/135/216 108/107/213 27/134/214
s 5
f 28/54/217 55/81/218 1/27/219
f 1/27/219 55/81/218 82/108/220
s 6
f 29/28/221 2/109/222 56/55/223
f 56/55/223 2/109/222 83/82/224
