# This file uses centimeters as units for non-parametric coordinates.

mtllib half-cylinder.mtl
g default
v 0.992116 -0.100503 -0.125333
v 0.968584 -0.100503 -0.248690
v 0.929777 -0.100503 -0.368125
v 0.876307 -0.100503 -0.481754
v 0.809018 -0.100503 -0.587786
v 0.728969 -0.100503 -0.684548
v 0.637425 -0.100503 -0.770514
v 0.535827 -0.100503 -0.844329
v 0.425780 -0.100503 -0.904828
v 0.309017 -0.100503 -0.951057
v 0.187381 -0.100503 -0.982288
v 0.062790 -0.100503 -0.998028
v -0.062791 -0.100503 -0.998028
v -0.187382 -0.100503 -0.982288
v -0.309017 -0.100503 -0.951057
v -0.425780 -0.100503 -0.904828
v -0.535827 -0.100503 -0.844328
v -0.637424 -0.100503 -0.770514
v -0.728969 -0.100503 -0.684547
v -0.809018 -0.100503 -0.587786
v -0.876307 -0.100503 -0.481754
v -0.929777 -0.100503 -0.368125
v -0.968584 -0.100503 -0.248690
v -0.992115 -0.100503 -0.125333
v -1.000001 -0.100503 0.000000
v 1.000000 -0.100503 0.000000
v 0.992116 0.100503 -0.125333
v 0.968584 0.100503 -0.248690
v 0.929777 0.100503 -0.368125
v 0.876307 0.100503 -0.481754
v 0.809018 0.100503 -0.587786
v 0.728969 0.100503 -0.684548
v 0.637425 0.100503 -0.770514
v 0.535827 0.100503 -0.844329
v 0.425780 0.100503 -0.904828
v 0.309017 0.100503 -0.951057
v 0.187381 0.100503 -0.982288
v 0.062790 0.100503 -0.998028
v -0.062791 0.100503 -0.998028
v -0.187382 0.100503 -0.982288
v -0.309017 0.100503 -0.951057
v -0.425780 0.100503 -0.904828
v -0.535827 0.100503 -0.844328
v -0.637424 0.100503 -0.770514
v -0.728969 0.100503 -0.684547
v -0.809018 0.100503 -0.587786
v -0.876307 0.100503 -0.481754
v -0.929777 0.100503 -0.368125
v -0.968584 0.100503 -0.248690
v -0.992115 0.100503 -0.125333
v -1.000001 0.100503 0.000000
v 1.000000 0.100503 0.000000
v 0.000000 -0.100503 0.000000
v 0.000000 0.100503 0.000000
vt 0.655018 0.136667
vt 0.651341 0.117392
vt 0.645278 0.098730
vt 0.636923 0.080976
vt 0.626409 0.064408
vt 0.613901 0.049289
vt 0.599598 0.035857
vt 0.583723 0.024324
vt 0.566528 0.014871
vt 0.548284 0.007647
vt 0.529278 0.002767
vt 0.509811 0.000308
vt 0.490189 0.000308
vt 0.470722 0.002768
vt 0.451716 0.007647
vt 0.433472 0.014871
vt 0.416277 0.024324
vt 0.400402 0.035857
vt 0.386099 0.049290
vt 0.373591 0.064409
vt 0.363077 0.080976
vt 0.354722 0.098731
vt 0.348659 0.117392
vt 0.344982 0.136667
vt 0.343750 0.156250
vt 0.656250 0.156250
vt 0.375000 0.312500
vt 0.380000 0.312500
vt 0.385000 0.312500
vt 0.390000 0.312500
vt 0.395000 0.312500
vt 0.400000 0.312500
vt 0.405000 0.312500
vt 0.410000 0.312500
vt 0.415000 0.312500
vt 0.420000 0.312500
vt 0.425000 0.312500
vt 0.430000 0.312500
vt 0.435000 0.312500
vt 0.440000 0.312500
vt 0.445000 0.312500
vt 0.450000 0.312500
vt 0.455000 0.312500
vt 0.460000 0.312500
vt 0.465000 0.312500
vt 0.470000 0.312500
vt 0.475000 0.312500
vt 0.480000 0.312500
vt 0.485000 0.312500
vt 0.490000 0.312500
vt 0.495000 0.312500
vt 0.620000 0.312500
vt 0.625000 0.312500
vt 0.375000 0.688440
vt 0.380000 0.688440
vt 0.385000 0.688440
vt 0.390000 0.688440
vt 0.395000 0.688440
vt 0.400000 0.688440
vt 0.405000 0.688440
vt 0.410000 0.688440
vt 0.415000 0.688440
vt 0.420000 0.688440
vt 0.425000 0.688440
vt 0.430000 0.688440
vt 0.435000 0.688440
vt 0.440000 0.688440
vt 0.445000 0.688440
vt 0.450000 0.688440
vt 0.455000 0.688440
vt 0.460000 0.688440
vt 0.465000 0.688440
vt 0.470000 0.688440
vt 0.475000 0.688440
vt 0.480000 0.688440
vt 0.485000 0.688440
vt 0.490000 0.688440
vt 0.495000 0.688440
vt 0.620000 0.688440
vt 0.625000 0.688440
vt 0.343750 0.843750
vt 0.344982 0.863333
vt 0.348659 0.882608
vt 0.354722 0.901270
vt 0.363077 0.919024
vt 0.373591 0.935592
vt 0.386099 0.950711
vt 0.400402 0.964143
vt 0.416277 0.975676
vt 0.433472 0.985129
vt 0.451716 0.992353
vt 0.470722 0.997232
vt 0.490189 0.999692
vt 0.509811 0.999692
vt 0.529278 0.997232
vt 0.548284 0.992353
vt 0.566528 0.985129
vt 0.583723 0.975676
vt 0.599598 0.964143
vt 0.613901 0.950710
vt 0.626409 0.935591
vt 0.636923 0.919024
vt 0.645278 0.901269
vt 0.651341 0.882608
vt 0.655018 0.863333
vt 0.656250 0.843750
vt 0.500000 0.150000
vt 0.500000 0.837500
vn 0.992115 0.000000 -0.125329
vn 0.968583 0.000000 -0.248690
vn 0.992115 0.000000 -0.125329
vn 0.968583 0.000000 -0.248690
vn 0.929776 0.000000 -0.368125
vn 0.929776 0.000000 -0.368125
vn 0.876307 0.000000 -0.481754
vn 0.876307 0.000000 -0.481754
vn 0.809017 0.000000 -0.587785
vn 0.809017 0.000000 -0.587785
vn 0.728969 0.000000 -0.684547
vn 0.728969 0.000000 -0.684547
vn 0.637424 0.000000 -0.770513
vn 0.637424 0.000000 -0.770513
vn 0.535827 0.000000 -0.844328
vn 0.535826 0.000000 -0.844328
vn 0.425779 0.000000 -0.904827
vn 0.425779 0.000000 -0.904827
vn 0.309017 0.000000 -0.951056
vn 0.309017 0.000000 -0.951057
vn 0.187381 0.000000 -0.982287
vn 0.187381 0.000000 -0.982287
vn 0.062790 0.000000 -0.998027
vn 0.062790 0.000000 -0.998027
vn -0.062791 0.000000 -0.998027
vn -0.062791 0.000000 -0.998027
vn -0.187382 0.000000 -0.982287
vn -0.187381 0.000000 -0.982287
vn -0.309018 0.000000 -0.951056
vn -0.309017 0.000000 -0.951057
vn -0.425780 0.000000 -0.904827
vn -0.425779 0.000000 -0.904827
vn -0.535827 0.000000 -0.844328
vn -0.535827 0.000000 -0.844328
vn -0.637424 0.000000 -0.770513
vn -0.637424 0.000000 -0.770513
vn -0.728969 0.000000 -0.684547
vn -0.728969 0.000000 -0.684547
vn -0.809017 0.000000 -0.587785
vn -0.809017 0.000000 -0.587785
vn -0.876307 0.000000 -0.481754
vn -0.876307 0.000000 -0.481754
vn -0.929777 0.000000 -0.368124
vn -0.929776 0.000000 -0.368125
vn -0.968583 0.000000 -0.248690
vn -0.968583 0.000000 -0.248690
vn -0.992115 0.000000 -0.125333
vn -0.992115 0.000000 -0.125333
vn -0.998027 0.000000 -0.062790
vn -0.998027 0.000000 -0.062790
vn 0.998027 0.000000 -0.062782
vn 0.998027 0.000000 -0.062782
vn 0.000000 -1.000000 0.000000
vn 0.000000 -1.000000 0.000000
vn 0.000000 -1.000000 0.000000
vn 0.000000 -1.000000 0.000000
vn 0.000000 -1.000000 0.000000
vn 0.000000 -1.000000 0.000000
vn 0.000000 -1.000000 0.000000
vn 0.000000 -1.000000 0.000000
vn 0.000000 -1.000000 0.000000
vn 0.000000 -1.000000 0.000000
vn 0.000000 -1.000000 0.000000
vn 0.000000 -1.000000 0.000000
vn 0.000000 -1.000000 0.000000
vn 0.000000 -1.000000 0.000000
vn 0.000000 -1.000000 0.000000
vn 0.000000 -1.000000 0.000000
vn 0.000000 -1.000000 0.000000
vn 0.000000 -1.000000 0.000000
vn 0.000000 -1.000000 0.000000
vn 0.000000 -1.000000 0.000000
vn 0.000000 -1.000000 0.000000
vn 0.000000 -1.000000 0.000000
vn 0.000000 -1.000000 0.000000
vn 0.000000 -1.000000 0.000000
vn 0.000000 -1.000000 0.000000
vn 0.000000 -1.000000 0.000000
vn 0.000000 -1.000000 0.000000
vn 0.000000 1.000000 0.000000
vn 0.000000 1.000000 0.000000
vn 0.000000 1.000000 0.000000
vn 0.000000 1.000000 0.000000
vn 0.000000 1.000000 0.000000
vn 0.000000 1.000000 0.000000
vn 0.000000 1.000000 0.000000
vn 0.000000 1.000000 0.000000
vn 0.000000 1.000000 0.000000
vn 0.000000 1.000000 0.000000
vn 0.000000 1.000000 0.000000
vn 0.000000 1.000000 0.000000
vn 0.000000 1.000000 0.000000
vn 0.000000 1.000000 0.000000
vn 0.000000 1.000000 0.000000
vn 0.000000 1.000000 0.000000
vn 0.000000 1.000000 0.000000
vn 0.000000 1.000000 0.000000
vn 0.000000 1.000000 0.000000
vn 0.000000 1.000000 0.000000
vn 0.000000 1.000000 0.000000
vn 0.000000 1.000000 0.000000
vn 0.000000 1.000000 0.000000
vn 0.000000 1.000000 0.000000
vn 0.000000 1.000000 0.000000
vn 0.000000 1.000000 0.000000
vn 0.000000 1.000000 0.000000
vn 0.000000 0.000000 1.000000
vn 0.000000 0.000000 1.000000
vn 0.000000 0.000000 1.000000
vn 0.000000 0.000000 1.000000
vn 0.000000 0.000000 1.000000
vn 0.000000 0.000000 1.000000
s 1
g pCylinder1
usemtl initialShadingGroup
f 1/27/1 2/28/2 27/54/3
f 27/54/3 2/28/2 28/55/4
f 2/28/2 3/29/5 28/55/4
f 28/55/4 3/29/5 29/56/6
f 3/29/5 4/30/7 29/56/6
f 29/56/6 4/30/7 30/57/8
f 4/30/7 5/31/9 30/57/8
f 30/57/8 5/31/9 31/58/10
f 5/31/9 6/32/11 31/58/10
f 31/58/10 6/32/11 32/59/12
f 6/32/11 7/33/13 32/59/12
f 32/59/12 7/33/13 33/60/14
f 7/33/13 8/34/15 33/60/14
f 33/60/14 8/34/15 34/61/16
f 8/34/15 9/35/17 34/61/16
f 34/61/16 9/35/17 35/62/18
f 9/35/17 10/36/19 35/62/18
f 35/62/18 10/36/19 36/63/20
f 10/36/19 11/37/21 36/63/20
f 36/63/20 11/37/21 37/64/22
f 11/37/21 12/38/23 37/64/22
f 37/64/22 12/38/23 38/65/24
f 12/38/23 13/39/25 38/65/24
f 38/65/24 13/39/25 39/66/26
f 13/39/25 14/40/27 39/66/26
f 39/66/26 14/40/27 40/67/28
f 14/40/27 15/41/29 40/67/28
f 40/67/28 15/41/29 41/68/30
f 15/41/29 16/42/31 41/68/30
f 41/68/30 16/42/31 42/69/32
f 16/42/31 17/43/33 42/69/32
f 42/69/32 17/43/33 43/70/34
f 17/43/33 18/44/35 43/70/34
f 43/70/34 18/44/35 44/71/36
f 18/44/35 19/45/37 44/71/36
f 44/71/36 19/45/37 45/72/38
f 19/45/37 20/46/39 45/72/38
f 45/72/38 20/46/39 46/73/40
f 20/46/39 21/47/41 46/73/40
f 46/73/40 21/47/41 47/74/42
f 21/47/41 22/48/43 47/74/42
f 47/74/42 22/48/43 48/75/44
f 22/48/43 23/49/45 48/75/44
f 48/75/44 23/49/45 49/76/46
f 23/49/45 24/50/47 49/76/46
f 49/76/46 24/50/47 50/77/48
f 24/50/47 25/51/49 50/77/48
f 50/77/48 25/51/49 51/78/50
f 26/52/51 1/53/1 52/79/52
f 52/79/52 1/53/1 27/80/3
s 2
f 2/2/53 1/1/54 53/107/55
f 3/3/56 2/2/53 53/107/55
f 4/4/57 3/3/56 53/107/55
f 5/5/58 4/4/57 53/107/55
f 6/6/59 5/5/58 53/107/55
f 7/7/60 6/6/59 53/107/55
f 8/8/61 7/7/60 53/107/55
f 9/9/62 8/8/61 53/107/55
f 10/10/63 9/9/62 53/107/55
f 11/11/64 10/10/63 53/107/55
f 12/12/65 11/11/64 53/107/55
f 13/13/66 12/12/65 53/107/55
f 14/14/67 13/13/66 53/107/55
f 15/15/68 14/14/67 53/107/55
f 16/16/69 15/15/68 53/107/55
f 17/17/70 16/16/69 53/107/55
f 18/18/71 17/17/70 53/107/55
f 19/19/72 18/18/71 53/107/55
f 20/20/73 19/19/72 53/107/55
f 21/21/74 20/20/73 53/107/55
f 22/22/75 21/21/74 53/107/55
f 23/23/76 22/22/75 53/107/55
f 24/24/77 23/23/76 53/107/55
f 25/25/78 24/24/77 53/107/55
f 1/1/54 26/26/79 53/107/55
s 3
f 27/105/80 28/104/81 54/108/82
f 28/104/81 29/103/83 54/108/82
f 29/103/83 30/102/84 54/108/82
f 30/102/84 31/101/85 54/108/82
f 31/101/85 32/100/86 54/108/82
f 32/100/86 33/99/87 54/108/82
f 33/99/87 34/98/88 54/108/82
f 34/98/88 35/97/89 54/108/82
f 35/97/89 36/96/90 54/108/82
f 36/96/90 37/95/91 54/108/82
f 37/95/91 38/94/92 54/108/82
f 38/94/92 39/93/93 54/108/82
f 39/93/93 40/92/94 54/108/82
f 40/92/94 41/91/95 54/108/82
f 41/91/95 42/90/96 54/108/82
f 42/90/96 43/89/97 54/108/82
f 43/89/97 44/88/98 54/108/82
f 44/88/98 45/87/99 54/108/82
f 45/87/99 46/86/100 54/108/82
f 46/86/100 47/85/101 54/108/82
f 47/85/101 48/84/102 54/108/82
f 48/84/102 49/83/103 54/108/82
f 49/83/103 50/82/104 54/108/82
f 50/82/104 51/81/105 54/108/82
f 52/106/106 27/105/80 54/108/82
s 4
f 51/78/107 25/25/108 54/108/109
f 25/25/108 53/107/110 54/108/109
f 53/107/110 26/52/111 54/108/109
f 26/52/111 52/106/112 54/108/109
