# This file uses centimeters as units for non-parametric coordinates.

g default
v 2.000000 -0.500000 -0.000000
v 1.984229 -0.500000 -0.250666
v 1.937166 -0.500000 -0.497380
v 1.859553 -0.500000 -0.736249
v 1.752613 -0.500000 -0.963507
v 1.618034 -0.500000 -1.175570
v 1.457937 -0.500000 -1.369094
v 1.274848 -0.500000 -1.541027
v 1.071654 -0.500000 -1.688656
v 0.851559 -0.500000 -1.809654
v 0.618034 -0.500000 -1.902113
v 0.374763 -0.500000 -1.964575
v 0.125581 -0.500000 -1.996054
v -0.125581 -0.500000 -1.996054
v -0.374763 -0.500000 -1.964575
v -0.618034 -0.500000 -1.902114
v -0.851559 -0.500000 -1.809655
v -1.071654 -0.500000 -1.688657
v -1.274848 -0.500000 -1.541027
v -1.457938 -0.500000 -1.369095
v -1.618035 -0.500000 -1.175571
v -1.752614 -0.500000 -0.963508
v -1.859554 -0.500000 -0.736250
v -1.937167 -0.500000 -0.497380
v -1.984231 -0.500000 -0.250667
v -2.000001 -0.500000 -0.000000
v 2.000000 0.500000 0.000000
v 1.984229 0.500000 -0.250666
v 1.937166 0.500000 -0.497380
v 1.859553 0.500000 -0.736249
v 1.752613 0.500000 -0.963507
v 1.618034 0.500000 -1.175570
v 1.457937 0.500000 -1.369094
v 1.274848 0.500000 -1.541027
v 1.071654 0.500000 -1.688656
v 0.851559 0.500000 -1.809654
v 0.618034 0.500000 -1.902113
v 0.374763 0.500000 -1.964575
v 0.125581 0.500000 -1.996054
v -0.125581 0.500000 -1.996054
v -0.374763 0.500000 -1.964575
v -0.618034 0.500000 -1.902114
v -0.851559 0.500000 -1.809655
v -1.071654 0.500000 -1.688657
v -1.274848 0.500000 -1.541027
v -1.457938 0.500000 -1.369095
v -1.618035 0.500000 -1.175571
v -1.752614 0.500000 -0.963508
v -1.859554 0.500000 -0.736250
v -1.937167 0.500000 -0.497380
v -1.984231 0.500000 -0.250667
v -2.000001 0.500000 -0.000000
v 5.000000 0.500000 0.000000
v 4.960574 0.500000 -0.626666
v 4.842916 0.500000 -1.243449
v 4.648883 0.500000 -1.840623
v 4.381534 0.500000 -2.408769
v 4.045085 0.500000 -2.938927
v 3.644843 0.500000 -3.422736
v 3.187120 0.500000 -3.852567
v 2.679134 0.500000 -4.221640
v 2.128896 0.500000 -4.524136
v 1.545085 0.500000 -4.755283
v 0.936907 0.500000 -4.911437
v 0.313952 0.500000 -4.990134
v -0.313953 0.500000 -4.990134
v -0.936907 0.500000 -4.911437
v -1.545085 0.500000 -4.755283
v -2.128897 0.500000 -4.524136
v -2.679135 0.500000 -4.221641
v -3.187121 0.500000 -3.852567
v -3.644844 0.500000 -3.422736
v -4.045086 0.500000 -2.938927
v -4.381535 0.500000 -2.408769
v -4.648884 0.500000 -1.840623
v -4.842918 0.500000 -1.243449
v -4.960576 0.500000 -0.626666
v -5.000002 0.500000 0.000001
v 5.000000 -0.500000 -0.000000
v 4.960574 -0.500000 -0.626666
v 4.842916 -0.500000 -1.243449
v 4.648883 -0.500000 -1.840623
v 4.381534 -0.500000 -2.408769
v 4.045085 -0.500000 -2.938927
v 3.644843 -0.500000 -3.422736
v 3.187120 -0.500000 -3.852567
v 2.679134 -0.500000 -4.221640
v 2.128896 -0.500000 -4.524136
v 1.545085 -0.500000 -4.755283
v 0.936907 -0.500000 -4.911437
v 0.313952 -0.500000 -4.990134
v -0.313953 -0.500000 -4.990134
v -0.936907 -0.500000 -4.911437
v -1.545085 -0.500000 -4.755283
v -2.128897 -0.500000 -4.524136
v -2.679135 -0.500000 -4.221641
v -3.187121 -0.500000 -3.852567
v -3.644844 -0.500000 -3.422736
v -4.045086 -0.500000 -2.938927
v -4.381535 -0.500000 -2.408769
v -4.648884 -0.500000 -1.840623
v -4.842918 -0.500000 -1.243449
v -4.960576 -0.500000 -0.626666
v -5.000002 -0.500000 0.000001
vt 0.000000 1.000000
vt 0.020000 1.000000
vt 0.040000 1.000000
vt 0.060000 1.000000
vt 0.080000 1.000000
vt 0.100000 1.000000
vt 0.120000 1.000000
vt 0.140000 1.000000
vt 0.160000 1.000000
vt 0.180000 1.000000
vt 0.200000 1.000000
vt 0.220000 1.000000
vt 0.240000 1.000000
vt 0.260000 1.000000
vt 0.280000 1.000000
vt 0.300000 1.000000
vt 0.320000 1.000000
vt 0.340000 1.000000
vt 0.360000 1.000000
vt 0.380000 1.000000
vt 0.400000 1.000000
vt 0.420000 1.000000
vt 0.440000 1.000000
vt 0.460000 1.000000
vt 0.480000 1.000000
vt 0.500000 1.000000
vt 0.000000 0.750000
vt 0.020000 0.750000
vt 0.040000 0.750000
vt 0.060000 0.750000
vt 0.080000 0.750000
vt 0.100000 0.750000
vt 0.120000 0.750000
vt 0.140000 0.750000
vt 0.160000 0.750000
vt 0.180000 0.750000
vt 0.200000 0.750000
vt 0.220000 0.750000
vt 0.240000 0.750000
vt 0.260000 0.750000
vt 0.280000 0.750000
vt 0.300000 0.750000
vt 0.320000 0.750000
vt 0.340000 0.750000
vt 0.360000 0.750000
vt 0.380000 0.750000
vt 0.400000 0.750000
vt 0.420000 0.750000
vt 0.440000 0.750000
vt 0.460000 0.750000
vt 0.480000 0.750000
vt 0.500000 0.750000
vt 0.000000 0.500000
vt 0.020000 0.500000
vt 0.040000 0.500000
vt 0.060000 0.500000
vt 0.080000 0.500000
vt 0.100000 0.500000
vt 0.120000 0.500000
vt 0.140000 0.500000
vt 0.160000 0.500000
vt 0.180000 0.500000
vt 0.200000 0.500000
vt 0.220000 0.500000
vt 0.240000 0.500000
vt 0.260000 0.500000
vt 0.280000 0.500000
vt 0.300000 0.500000
vt 0.320000 0.500000
vt 0.340000 0.500000
vt 0.360000 0.500000
vt 0.380000 0.500000
vt 0.400000 0.500000
vt 0.420000 0.500000
vt 0.440000 0.500000
vt 0.460000 0.500000
vt 0.480000 0.500000
vt 0.500000 0.500000
vt 0.000000 0.250000
vt 0.020000 0.250000
vt 0.040000 0.250000
vt 0.060000 0.250000
vt 0.080000 0.250000
vt 0.100000 0.250000
vt 0.120000 0.250000
vt 0.140000 0.250000
vt 0.160000 0.250000
vt 0.180000 0.250000
vt 0.200000 0.250000
vt 0.220000 0.250000
vt 0.240000 0.250000
vt 0.260000 0.250000
vt 0.280000 0.250000
vt 0.300000 0.250000
vt 0.320000 0.250000
vt 0.340000 0.250000
vt 0.360000 0.250000
vt 0.380000 0.250000
vt 0.400000 0.250000
vt 0.420000 0.250000
vt 0.440000 0.250000
vt 0.460000 0.250000
vt 0.480000 0.250000
vt 0.500000 0.250000
vt 0.000000 0.000000
vt 0.020000 0.000000
vt 0.040000 0.000000
vt 0.060000 0.000000
vt 0.080000 0.000000
vt 0.100000 0.000000
vt 0.120000 0.000000
vt 0.140000 0.000000
vt 0.160000 0.000000
vt 0.180000 0.000000
vt 0.200000 0.000000
vt 0.220000 0.000000
vt 0.240000 0.000000
vt 0.260000 0.000000
vt 0.280000 0.000000
vt 0.300000 0.000000
vt 0.320000 0.000000
vt 0.340000 0.000000
vt 0.360000 0.000000
vt 0.380000 0.000000
vt 0.400000 0.000000
vt 0.420000 0.000000
vt 0.440000 0.000000
vt 0.460000 0.000000
vt 0.480000 0.000000
vt 0.500000 0.000000
vn -0.992115 0.000000 0.125333
vn -0.998027 0.000000 0.062790
vn -0.992115 0.000000 0.125333
vn -0.998027 0.000000 0.062790
vn -0.968583 0.000000 0.248690
vn -0.968583 0.000000 0.248690
vn -0.929777 0.000000 0.368125
vn -0.929777 0.000000 0.368125
vn -0.876307 0.000000 0.481753
vn -0.876307 0.000000 0.481754
vn -0.809017 0.000000 0.587785
vn -0.809017 0.000000 0.587785
vn -0.728969 0.000000 0.684547
vn -0.728969 0.000000 0.684547
vn -0.637424 0.000000 0.770513
vn -0.637424 0.000000 0.770513
vn -0.535827 0.000000 0.844328
vn -0.535827 0.000000 0.844328
vn -0.425780 0.000000 0.904827
vn -0.425780 0.000000 0.904827
vn -0.309017 0.000000 0.951056
vn -0.309018 0.000000 0.951056
vn -0.187382 0.000000 0.982287
vn -0.187382 0.000000 0.982287
vn -0.062791 0.000000 0.998027
vn -0.062791 0.000000 0.998027
vn 0.062790 0.000000 0.998027
vn 0.062790 0.000000 0.998027
vn 0.187381 0.000000 0.982287
vn 0.187381 0.000000 0.982287
vn 0.309017 0.000000 0.951057
vn 0.309017 0.000000 0.951057
vn 0.425779 0.000000 0.904827
vn 0.425779 0.000000 0.904827
vn 0.535826 0.000000 0.844328
vn 0.535827 0.000000 0.844328
vn 0.637424 0.000000 0.770513
vn 0.637424 0.000000 0.770513
vn 0.728969 0.000000 0.684547
vn 0.728968 0.000000 0.684547
vn 0.809017 0.000000 0.587786
vn 0.809017 0.000000 0.587786
vn 0.876306 0.000000 0.481754
vn 0.876307 0.000000 0.481754
vn 0.929776 0.000000 0.368125
vn 0.929776 0.000000 0.368125
vn 0.968583 0.000000 0.248690
vn 0.968583 0.000000 0.248690
vn 0.992115 0.000000 0.125333
vn 0.992115 0.000000 0.125333
vn 0.998027 0.000000 0.062791
vn 0.998027 0.000000 0.062791
vn 0.000000 1.000000 0.000000
vn 0.000000 1.000000 0.000000
vn 0.000000 1.000000 0.000000
vn 0.000000 1.000000 0.000000
vn 0.000000 1.000000 0.000000
vn 0.000000 1.000000 0.000000
vn 0.000000 1.000000 -0.000000
vn 0.000000 1.000000 0.000000
vn 0.000000 1.000000 -0.000000
vn 0.000000 1.000000 -0.000000
vn 0.000000 1.000000 0.000000
vn 0.000000 1.000000 0.000000
vn 0.000000 1.000000 0.000000
vn 0.000000 1.000000 0.000000
vn 0.000000 1.000000 0.000000
vn 0.000000 1.000000 0.000000
vn 0.000000 1.000000 0.000000
vn 0.000000 1.000000 0.000000
vn 0.000000 1.000000 0.000000
vn 0.000000 1.000000 0.000000
vn 0.000000 1.000000 0.000000
vn 0.000000 1.000000 0.000000
vn 0.000000 1.000000 0.000000
vn 0.000000 1.000000 0.000000
vn 0.000000 1.000000 -0.000000
vn 0.000000 1.000000 0.000000
vn 0.000000 1.000000 -0.000000
vn 0.000000 1.000000 0.000000
vn 0.000000 1.000000 0.000000
vn 0.000000 1.000000 0.000000
vn 0.000000 1.000000 0.000000
vn 0.000000 1.000000 0.000000
vn 0.000000 1.000000 0.000000
vn 0.000000 1.000000 0.000000
vn 0.000000 1.000000 0.000000
vn 0.000000 1.000000 0.000000
vn 0.000000 1.000000 0.000000
vn 0.000000 1.000000 -0.000000
vn 0.000000 1.000000 0.000000
vn 0.000000 1.000000 -0.000000
vn 0.000000 1.000000 0.000000
vn 0.000000 1.000000 0.000000
vn 0.000000 1.000000 0.000000
vn 0.000000 1.000000 0.000000
vn 0.000000 1.000000 0.000000
vn 0.000000 1.000000 0.000000
vn 0.000000 1.000000 0.000000
vn 0.000000 1.000000 0.000000
vn 0.000000 1.000000 0.000000
vn 0.000000 1.000000 0.000000
vn 0.000000 1.000000 0.000000
vn 0.000000 1.000000 0.000000
vn 0.992115 0.000000 -0.125333
vn 0.998027 0.000000 -0.062790
vn 0.992115 0.000000 -0.125333
vn 0.998027 0.000000 -0.062790
vn 0.968583 0.000000 -0.248690
vn 0.968583 0.000000 -0.248690
vn 0.929777 0.000000 -0.368125
vn 0.929777 0.000000 -0.368124
vn 0.876307 0.000000 -0.481754
vn 0.876307 0.000000 -0.481754
vn 0.809017 0.000000 -0.587785
vn 0.809017 0.000000 -0.587785
vn 0.728969 0.000000 -0.684547
vn 0.728969 0.000000 -0.684547
vn 0.637424 0.000000 -0.770513
vn 0.637424 0.000000 -0.770513
vn 0.535827 0.000000 -0.844328
vn 0.535827 0.000000 -0.844328
vn 0.425779 0.000000 -0.904827
vn 0.425779 0.000000 -0.904827
vn 0.309017 0.000000 -0.951057
vn 0.309017 0.000000 -0.951057
vn 0.187382 0.000000 -0.982287
vn 0.187381 0.000000 -0.982287
vn 0.062790 0.000000 -0.998027
vn 0.062790 0.000000 -0.998027
vn -0.062790 0.000000 -0.998027
vn -0.062790 0.000000 -0.998027
vn -0.187381 0.000000 -0.982287
vn -0.187381 0.000000 -0.982287
vn -0.309017 0.000000 -0.951057
vn -0.309017 0.000000 -0.951056
vn -0.425779 0.000000 -0.904827
vn -0.425779 0.000000 -0.904827
vn -0.535827 0.000000 -0.844328
vn -0.535827 0.000000 -0.844328
vn -0.637424 0.000000 -0.770513
vn -0.637424 0.000000 -0.770513
vn -0.728969 0.000000 -0.684547
vn -0.728969 0.000000 -0.684547
vn -0.809017 0.000000 -0.587785
vn -0.809017 0.000000 -0.587785
vn -0.876307 0.000000 -0.481754
vn -0.876307 0.000000 -0.481754
vn -0.929776 0.000000 -0.368125
vn -0.929776 0.000000 -0.368125
vn -0.968583 0.000000 -0.248690
vn -0.968583 0.000000 -0.248690
vn -0.992115 0.000000 -0.125333
vn -0.992115 0.000000 -0.125333
vn -0.998027 0.000000 -0.062791
vn -0.998027 0.000000 -0.062791
vn 0.000000 -1.000000 0.000000
vn 0.000000 -1.000000 -0.000000
vn 0.000000 -1.000000 0.000000
vn 0.000000 -1.000000 -0.000000
vn 0.000000 -1.000000 0.000000
vn 0.000000 -1.000000 0.000000
vn 0.000000 -1.000000 -0.000000
vn 0.000000 -1.000000 -0.000000
vn 0.000000 -1.000000 0.000000
vn 0.000000 -1.000000 -0.000000
vn 0.000000 -1.000000 0.000000
vn 0.000000 -1.000000 0.000000
vn 0.000000 -1.000000 0.000000
vn 0.000000 -1.000000 0.000000
vn 0.000000 -1.000000 0.000000
vn 0.000000 -1.000000 0.000000
vn 0.000000 -1.000000 -0.000000
vn 0.000000 -1.000000 -0.000000
vn 0.000000 -1.000000 0.000000
vn 0.000000 -1.000000 -0.000000
vn 0.000000 -1.000000 0.000000
vn 0.000000 -1.000000 0.000000
vn 0.000000 -1.000000 0.000000
vn 0.000000 -1.000000 -0.000000
vn 0.000000 -1.000000 -0.000000
vn 0.000000 -1.000000 0.000000
vn 0.000000 -1.000000 -0.000000
vn 0.000000 -1.000000 0.000000
vn 0.000000 -1.000000 0.000000
vn 0.000000 -1.000000 0.000000
vn 0.000000 -1.000000 0.000000
vn 0.000000 -1.000000 0.000000
vn 0.000000 -1.000000 0.000000
vn 0.000000 -1.000000 0.000000
vn 0.000000 -1.000000 0.000000
vn 0.000000 -1.000000 0.000000
vn 0.000000 -1.000000 0.000000
vn 0.000000 -1.000000 0.000000
vn 0.000000 -1.000000 0.000000
vn 0.000000 -1.000000 0.000000
vn 0.000000 -1.000000 -0.000000
vn 0.000000 -1.000000 -0.000000
vn 0.000000 -1.000000 0.000000
vn 0.000000 -1.000000 -0.000000
vn 0.000000 -1.000000 0.000000
vn 0.000000 -1.000000 0.000000
vn 0.000000 -1.000000 0.000000
vn 0.000000 -1.000000 0.000000
vn 0.000000 -1.000000 0.000000
vn 0.000000 -1.000000 0.000000
vn 0.000000 -1.000000 0.000000
vn 0.000000 -1.000000 0.000000
vn 0.000000 -0.000000 1.000000
vn 0.000000 -0.000000 1.000000
vn 0.000000 -0.000000 1.000000
vn 0.000000 -0.000000 1.000000
vn 0.000000 0.000000 1.000000
vn 0.000000 0.000000 1.000000
vn 0.000000 0.000000 1.000000
vn 0.000000 0.000000 1.000000
s 1
g pPipe1
f 2/2/1 1/1/2 28/28/3
f 28/28/3 1/1/2 27/27/4
f 3/3/5 2/2/1 29/29/6
f 29/29/6 2/2/1 28/28/3
f 4/4/7 3/3/5 30/30/8
f 30/30/8 3/3/5 29/29/6
f 5/5/9 4/4/7 31/31/10
f 31/31/10 4/4/7 30/30/8
f 6/6/11 5/5/9 32/32/12
f 32/32/12 5/5/9 31/31/10
f 7/7/13 6/6/11 33/33/14
f 33/33/14 6/6/11 32/32/12
f 8/8/15 7/7/13 34/34/16
f 34/34/16 7/7/13 33/33/14
f 9/9/17 8/8/15 35/35/18
f 35/35/18 8/8/15 34/34/16
f 10/10/19 9/9/17 36/36/20
f 36/36/20 9/9/17 35/35/18
f 11/11/21 10/10/19 37/37/22
f 37/37/22 10/10/19 36/36/20
f 12/12/23 11/11/21 38/38/24
f 38/38/24 11/11/21 37/37/22
f 13/13/25 12/12/23 39/39/26
f 39/39/26 12/12/23 38/38/24
f 14/14/27 13/13/25 40/40/28
f 40/40/28 13/13/25 39/39/26
f 15/15/29 14/14/27 41/41/30
f 41/41/30 14/14/27 40/40/28
f 16/16/31 15/15/29 42/42/32
f 42/42/32 15/15/29 41/41/30
f 17/17/33 16/16/31 43/43/34
f 43/43/34 16/16/31 42/42/32
f 18/18/35 17/17/33 44/44/36
f 44/44/36 17/17/33 43/43/34
f 19/19/37 18/18/35 45/45/38
f 45/45/38 18/18/35 44/44/36
f 20/20/39 19/19/37 46/46/40
f 46/46/40 19/19/37 45/45/38
f 21/21/41 20/20/39 47/47/42
f 47/47/42 20/20/39 46/46/40
f 22/22/43 21/21/41 48/48/44
f 48/48/44 21/21/41 47/47/42
f 23/23/45 22/22/43 49/49/46
f 49/49/46 22/22/43 48/48/44
f 24/24/47 23/23/45 50/50/48
f 50/50/48 23/23/45 49/49/46
f 25/25/49 24/24/47 51/51/50
f 51/51/50 24/24/47 50/50/48
f 26/26/51 25/25/49 52/52/52
f 52/52/52 25/25/49 51/51/50
s 2
f 28/28/53 27/27/54 54/54/55
f 54/54/55 27/27/54 53/53/56
f 29/29/57 28/28/53 55/55/58
f 55/55/58 28/28/53 54/54/55
f 30/30/59 29/29/57 56/56/60
f 56/56/60 29/29/57 55/55/58
f 31/31/61 30/30/59 57/57/62
f 57/57/62 30/30/59 56/56/60
f 32/32/63 31/31/61 58/58/64
f 58/58/64 31/31/61 57/57/62
f 33/33/65 32/32/63 59/59/66
f 59/59/66 32/32/63 58/58/64
f 34/34/67 33/33/65 60/60/68
f 60/60/68 33/33/65 59/59/66
f 35/35/69 34/34/67 61/61/70
f 61/61/70 34/34/67 60/60/68
f 36/36/71 35/35/69 62/62/72
f 62/62/72 35/35/69 61/61/70
f 37/37/73 36/36/71 63/63/74
f 63/63/74 36/36/71 62/62/72
f 38/38/75 37/37/73 64/64/76
f 64/64/76 37/37/73 63/63/74
f 39/39/77 38/38/75 65/65/78
f 65/65/78 38/38/75 64/64/76
f 40/40/79 39/39/77 66/66/80
f 66/66/80 39/39/77 65/65/78
f 41/41/81 40/40/79 67/67/82
f 67/67/82 40/40/79 66/66/80
f 42/42/83 41/41/81 68/68/84
f 68/68/84 41/41/81 67/67/82
f 43/43/85 42/42/83 69/69/86
f 69/69/86 42/42/83 68/68/84
f 44/44/87 43/43/85 70/70/88
f 70/70/88 43/43/85 69/69/86
f 45/45/89 44/44/87 71/71/90
f 71/71/90 44/44/87 70/70/88
f 46/46/91 45/45/89 72/72/92
f 72/72/92 45/45/89 71/71/90
f 47/47/93 46/46/91 73/73/94
f 73/73/94 46/46/91 72/72/92
f 48/48/95 47/47/93 74/74/96
f 74/74/96 47/47/93 73/73/94
f 49/49/97 48/48/95 75/75/98
f 75/75/98 48/48/95 74/74/96
f 50/50/99 49/49/97 76/76/100
f 76/76/100 49/49/97 75/75/98
f 51/51/101 50/50/99 77/77/102
f 77/77/102 50/50/99 76/76/100
f 52/52/103 51/51/101 78/78/104
f 78/78/104 51/51/101 77/77/102
s 3
f 54/54/105 53/53/106 80/80/107
f 80/80/107 53/53/106 79/79/108
f 55/55/109 54/54/105 81/81/110
f 81/81/110 54/54/105 80/80/107
f 56/56/111 55/55/109 82/82/112
f 82/82/112 55/55/109 81/81/110
f 57/57/113 56/56/111 83/83/114
f 83/83/114 56/56/111 82/82/112
f 58/58/115 57/57/113 84/84/116
f 84/84/116 57/57/113 83/83/114
f 59/59/117 58/58/115 85/85/118
f 85/85/118 58/58/115 84/84/116
f 60/60/119 59/59/117 86/86/120
f 86/86/120 59/59/117 85/85/118
f 61/61/121 60/60/119 87/87/122
f 87/87/122 60/60/119 86/86/120
f 62/62/123 61/61/121 88/88/124
f 88/88/124 61/61/121 87/87/122
f 63/63/125 62/62/123 89/89/126
f 89/89/126 62/62/123 88/88/124
f 64/64/127 63/63/125 90/90/128
f 90/90/128 63/63/125 89/89/126
f 65/65/129 64/64/127 91/91/130
f 91/91/130 64/64/127 90/90/128
f 66/66/131 65/65/129 92/92/132
f 92/92/132 65/65/129 91/91/130
f 67/67/133 66/66/131 93/93/134
f 93/93/134 66/66/131 92/92/132
f 68/68/135 67/67/133 94/94/136
f 94/94/136 67/67/133 93/93/134
f 69/69/137 68/68/135 95/95/138
f 95/95/138 68/68/135 94/94/136
f 70/70/139 69/69/137 96/96/140
f 96/96/140 69/69/137 95/95/138
f 71/71/141 70/70/139 97/97/142
f 97/97/142 70/70/139 96/96/140
f 72/72/143 71/71/141 98/98/144
f 98/98/144 71/71/141 97/97/142
f 73/73/145 72/72/143 99/99/146
f 99/99/146 72/72/143 98/98/144
f 74/74/147 73/73/145 100/100/148
f 100/100/148 73/73/145 99/99/146
f 75/75/149 74/74/147 101/101/150
f 101/101/150 74/74/147 100/100/148
f 76/76/151 75/75/149 102/102/152
f 102/102/152 75/75/149 101/101/150
f 77/77/153 76/76/151 103/103/154
f 103/103/154 76/76/151 102/102/152
f 78/78/155 77/77/153 104/104/156
f 104/104/156 77/77/153 103/103/154
s 4
f 80/80/157 79/79/158 2/106/159
f 2/106/159 79/79/158 1/105/160
f 81/81/161 80/80/157 3/107/162
f 3/107/162 80/80/157 2/106/159
f 82/82/163 81/81/161 4/108/164
f 4/108/164 81/81/161 3/107/162
f 83/83/165 82/82/163 5/109/166
f 5/109/166 82/82/163 4/108/164
f 84/84/167 83/83/165 6/110/168
f 6/110/168 83/83/165 5/109/166
f 85/85/169 84/84/167 7/111/170
f 7/111/170 84/84/167 6/110/168
f 86/86/171 85/85/169 8/112/172
f 8/112/172 85/85/169 7/111/170
f 87/87/173 86/86/171 9/113/174
f 9/113/174 86/86/171 8/112/172
f 88/88/175 87/87/173 10/114/176
f 10/114/176 87/87/173 9/113/174
f 89/89/177 88/88/175 11/115/178
f 11/115/178 88/88/175 10/114/176
f 90/90/179 89/89/177 12/116/180
f 12/116/180 89/89/177 11/115/178
f 91/91/181 90/90/179 13/117/182
f 13/117/182 90/90/179 12/116/180
f 92/92/183 91/91/181 14/118/184
f 14/118/184 91/91/181 13/117/182
f 93/93/185 92/92/183 15/119/186
f 15/119/186 92/92/183 14/118/184
f 94/94/187 93/93/185 16/120/188
f 16/120/188 93/93/185 15/119/186
f 95/95/189 94/94/187 17/121/190
f 17/121/190 94/94/187 16/120/188
f 96/96/191 95/95/189 18/122/192
f 18/122/192 95/95/189 17/121/190
f 97/97/193 96/96/191 19/123/194
f 19/123/194 96/96/191 18/122/192
f 98/98/195 97/97/193 20/124/196
f 20/124/196 97/97/193 19/123/194
f 99/99/197 98/98/195 21/125/198
f 21/125/198 98/98/195 20/124/196
f 100/100/199 99/99/197 22/126/200
f 22/126/200 99/99/197 21/125/198
f 101/101/201 100/100/199 23/127/202
f 23/127/202 100/100/199 22/126/200
f 102/102/203 101/101/201 24/128/204
f 24/128/204 101/101/201 23/127/202
f 103/103/205 102/102/203 25/129/206
f 25/129/206 102/102/203 24/128/204
f 104/104/207 103/103/205 26/130/208
f 26/130/208 103/103/205 25/129/206
s 5
f 27/27/209 1/105/210 53/53/211
f 53/53/211 1/105/210 79/79/212
s 6
f 52/52/213 78/78/214 26/26/215
f 26/26/215 78/78/214 104/104/216
